<?xml version="1.0" encoding="UTF-8"?>
<svg xmlns="http://www.w3.org/2000/svg" viewBox="0 0 1100 900" width="1100" height="900" font-family="Helvetica, Arial, sans-serif"><defs><marker id="arr" viewBox="0 0 10 10" refX="8" refY="5" markerWidth="7" markerHeight="7" orient="auto-start-reverse"><path d="M0,0 L10,5 L0,10 z" fill="#8A97A0"></path></marker><filter id="sh" x="-20%" y="-20%" width="140%" height="140%"><feDropShadow dx="0" dy="1.2" stdDeviation="1.4" flood-color="#000" flood-opacity="0.16"></feDropShadow></filter></defs><rect width="1100" height="900" fill="#ffffff"></rect><text x="30" y="62" text-anchor="middle" font-size="13.5" font-weight="700" fill="#5D6D7E" dominant-baseline="middle" transform="rotate(-90 30 62)"><tspan x="30" dy="0">Data</tspan></text><rect x="80" y="34" width="132.57142857142858" height="56" rx="9" ry="9" fill="#E5E8E8" stroke="#AAB7B8" stroke-width="1.1" filter="url(#sh)"></rect><text x="146.28571428571428" y="62" text-anchor="middle" font-size="14" font-weight="600" fill="#283747" dominant-baseline="middle"><tspan x="146.28571428571428" dy="-8.68">OpenStreetMap</tspan><tspan x="146.28571428571428" dy="17.36">84,211 assets</tspan></text><line x1="146.28571428571428" y1="90" x2="146.28571428571428" y2="114" stroke="#8A97A0" stroke-width="1.6" marker-end="url(#arr)"></line><rect x="224.57142857142858" y="34" width="132.57142857142858" height="56" rx="9" ry="9" fill="#E5E8E8" stroke="#AAB7B8" stroke-width="1.1" filter="url(#sh)"></rect><text x="290.8571428571429" y="62" text-anchor="middle" font-size="14" font-weight="600" fill="#283747" dominant-baseline="middle"><tspan x="290.8571428571429" dy="-8.68">SRTM</tspan><tspan x="290.8571428571429" dy="17.36">30 m elevation</tspan></text><line x1="290.8571428571429" y1="90" x2="290.8571428571429" y2="114" stroke="#8A97A0" stroke-width="1.6" marker-end="url(#arr)"></line><rect x="369.14285714285717" y="34" width="132.57142857142858" height="56" rx="9" ry="9" fill="#E5E8E8" stroke="#AAB7B8" stroke-width="1.1" filter="url(#sh)"></rect><text x="435.42857142857144" y="62" text-anchor="middle" font-size="14" font-weight="600" fill="#283747" dominant-baseline="middle"><tspan x="435.42857142857144" dy="-8.68">Sentinel-1</tspan><tspan x="435.42857142857144" dy="17.36">13 flood events</tspan></text><line x1="435.42857142857144" y1="90" x2="435.42857142857144" y2="114" stroke="#8A97A0" stroke-width="1.6" marker-end="url(#arr)"></line><rect x="513.7142857142858" y="34" width="132.57142857142858" height="56" rx="9" ry="9" fill="#E5E8E8" stroke="#AAB7B8" stroke-width="1.1" filter="url(#sh)"></rect><text x="580.0000000000001" y="62" text-anchor="middle" font-size="14" font-weight="600" fill="#283747" dominant-baseline="middle"><tspan x="580.0000000000001" dy="-8.68">JRC GSW</tspan><tspan x="580.0000000000001" dy="17.36">30 m water</tspan></text><line x1="580.0000000000001" y1="90" x2="580.0000000000001" y2="114" stroke="#8A97A0" stroke-width="1.6" marker-end="url(#arr)"></line><rect x="658.2857142857143" y="34" width="132.57142857142858" height="56" rx="9" ry="9" fill="#E5E8E8" stroke="#AAB7B8" stroke-width="1.1" filter="url(#sh)"></rect><text x="724.5714285714287" y="62" text-anchor="middle" font-size="14" font-weight="600" fill="#283747" dominant-baseline="middle"><tspan x="724.5714285714287" dy="-8.68">WorldPop</tspan><tspan x="724.5714285714287" dy="17.36">90 m population</tspan></text><line x1="724.5714285714287" y1="90" x2="724.5714285714287" y2="114" stroke="#8A97A0" stroke-width="1.6" marker-end="url(#arr)"></line><rect x="802.8571428571429" y="34" width="132.57142857142858" height="56" rx="9" ry="9" fill="#E5E8E8" stroke="#AAB7B8" stroke-width="1.1" filter="url(#sh)"></rect><text x="869.1428571428572" y="62" text-anchor="middle" font-size="14" font-weight="600" fill="#283747" dominant-baseline="middle"><tspan x="869.1428571428572" dy="-8.68">geoBoundaries</tspan><tspan x="869.1428571428572" dy="17.36">2,999 unions</tspan></text><line x1="869.1428571428572" y1="90" x2="869.1428571428572" y2="114" stroke="#8A97A0" stroke-width="1.6" marker-end="url(#arr)"></line><rect x="947.4285714285716" y="34" width="132.57142857142858" height="56" rx="9" ry="9" fill="#E5E8E8" stroke="#AAB7B8" stroke-width="1.1" filter="url(#sh)"></rect><text x="1013.7142857142859" y="62" text-anchor="middle" font-size="14" font-weight="600" fill="#283747" dominant-baseline="middle"><tspan x="1013.7142857142859" dy="-8.68">NASA COOLR</tspan><tspan x="1013.7142857142859" dy="17.36">1,810 landslides</tspan></text><line x1="1013.7142857142859" y1="90" x2="1013.7142857142859" y2="114" stroke="#8A97A0" stroke-width="1.6" marker-end="url(#arr)"></line><text x="30" y="136" text-anchor="middle" font-size="13.5" font-weight="700" fill="#5D6D7E" dominant-baseline="middle" transform="rotate(-90 30 136)"><tspan x="30" dy="0">Preprocess</tspan></text><rect x="80" y="114" width="1000" height="44" rx="9" ry="9" fill="#D5DBDB" stroke="#AAB7B8" stroke-width="1.1" filter="url(#sh)"></rect><text x="580" y="136" text-anchor="middle" font-size="14" font-weight="600" fill="#283747" dominant-baseline="middle"><tspan x="580" dy="0">Clip to region · reproject to UTM 46N · slope, TWI, HAND, flow accumulation · district labels · 500 m grid</tspan></text><text x="30" y="232" text-anchor="middle" font-size="13.5" font-weight="700" fill="#5D6D7E" dominant-baseline="middle" transform="rotate(-90 30 232)"><tspan x="30" dy="0">Features</tspan></text><line x1="580" y1="158" x2="580" y2="182" stroke="#8A97A0" stroke-width="1.6" marker-end="url(#arr)"></line><rect x="80" y="182" width="1000" height="102" rx="12" ry="12" fill="#F7F9FA" stroke="#CBD5DB" stroke-width="1.1"></rect><rect x="154" y="196" width="40" height="30" rx="6" ry="6" fill="#5D6D7E"></rect><text x="174" y="211" text-anchor="middle" font-size="13" font-weight="600" fill="#fff" dominant-baseline="middle"><tspan x="174" dy="0">y</tspan></text><text x="174" y="241" text-anchor="middle" font-size="12" font-weight="700" fill="#5D6D7E" dominant-baseline="middle"><tspan x="174" dy="0">label</tspan></text><rect x="218" y="196" width="52" height="30" rx="6" ry="6" fill="#A6CEE3"></rect><text x="244" y="211" text-anchor="middle" font-size="13" font-weight="600" fill="#283747" dominant-baseline="middle"><tspan x="244" dy="0">elev</tspan></text><rect x="275" y="196" width="52" height="30" rx="6" ry="6" fill="#A6CEE3"></rect><text x="301" y="211" text-anchor="middle" font-size="13" font-weight="600" fill="#283747" dominant-baseline="middle"><tspan x="301" dy="0">slope</tspan></text><rect x="332" y="196" width="52" height="30" rx="6" ry="6" fill="#A6CEE3"></rect><text x="358" y="211" text-anchor="middle" font-size="13" font-weight="600" fill="#283747" dominant-baseline="middle"><tspan x="358" dy="0">TWI</tspan></text><rect x="389" y="196" width="52" height="30" rx="6" ry="6" fill="#A6CEE3"></rect><text x="415" y="211" text-anchor="middle" font-size="13" font-weight="600" fill="#283747" dominant-baseline="middle"><tspan x="415" dy="0">HAND</tspan></text><rect x="446" y="196" width="52" height="30" rx="6" ry="6" fill="#A6CEE3"></rect><text x="472" y="211" text-anchor="middle" font-size="13" font-weight="600" fill="#283747" dominant-baseline="middle"><tspan x="472" dy="0">flow</tspan></text><text x="358" y="241" text-anchor="middle" font-size="12" font-weight="700" fill="#2E6F9E" dominant-baseline="middle"><tspan x="358" dy="0">terrain</tspan></text><rect x="522" y="196" width="46" height="30" rx="6" ry="6" fill="#D3E4F5"></rect><text x="545" y="211" text-anchor="middle" font-size="13" font-weight="600" fill="#283747" dominant-baseline="middle"><tspan x="545" dy="0">pop</tspan></text><text x="545" y="241" text-anchor="middle" font-size="12" font-weight="700" fill="#4F7FB5" dominant-baseline="middle"><tspan x="545" dy="0">people</tspan></text><rect x="592" y="196" width="64" height="30" rx="6" ry="6" fill="#86B0DD"></rect><text x="624" y="211" text-anchor="middle" font-size="13" font-weight="600" fill="#283747" dominant-baseline="middle"><tspan x="624" dy="0">hospital</tspan></text><rect x="661" y="196" width="64" height="30" rx="6" ry="6" fill="#86B0DD"></rect><text x="693" y="211" text-anchor="middle" font-size="13" font-weight="600" fill="#283747" dominant-baseline="middle"><tspan x="693" dy="0">school</tspan></text><rect x="730" y="196" width="64" height="30" rx="6" ry="6" fill="#86B0DD"></rect><text x="762" y="211" text-anchor="middle" font-size="13" font-weight="600" fill="#283747" dominant-baseline="middle"><tspan x="762" dy="0">shelter</tspan></text><rect x="799" y="196" width="64" height="30" rx="6" ry="6" fill="#86B0DD"></rect><text x="831" y="211" text-anchor="middle" font-size="13" font-weight="600" fill="#283747" dominant-baseline="middle"><tspan x="831" dy="0">road</tspan></text><rect x="868" y="196" width="64" height="30" rx="6" ry="6" fill="#86B0DD"></rect><text x="900" y="211" text-anchor="middle" font-size="13" font-weight="600" fill="#283747" dominant-baseline="middle"><tspan x="900" dy="0">canal</tspan></text><text x="762" y="241" text-anchor="middle" font-size="12" font-weight="700" fill="#2B5C99" dominant-baseline="middle"><tspan x="762" dy="0">access distances</tspan></text><rect x="956" y="196" width="50" height="30" rx="6" ry="6" fill="#D7B8A0"></rect><text x="981" y="211" text-anchor="middle" font-size="13" font-weight="600" fill="#283747" dominant-baseline="middle"><tspan x="981" dy="0">type</tspan></text><text x="981" y="241" text-anchor="middle" font-size="12" font-weight="700" fill="#8A6A50" dominant-baseline="middle"><tspan x="981" dy="0">asset</tspan></text><text x="580" y="270" text-anchor="middle" font-size="12" font-weight="normal" fill="#5D6D7E" dominant-baseline="middle" font-style="italic"><tspan x="580" dy="0">each asset = standardised feature vector · y = ground flooded in at least m of the mapped Sentinel-1 events (Hill Tracts: COOLR landslide points)</tspan></text><text x="30" y="468" text-anchor="middle" font-size="13.5" font-weight="700" fill="#5D6D7E" dominant-baseline="middle" transform="rotate(-90 30 468)"><tspan x="30" dy="0">Model</tspan></text><rect x="80" y="312" width="600" height="26" fill="#D6DEE3"></rect><text x="380" y="325" text-anchor="middle" font-size="12.5" font-weight="600" fill="#283747" dominant-baseline="middle"><tspan x="380" dy="0">10 km spatial blocks · 80 % training, shared by both models</tspan></text><rect x="680" y="312" width="75" height="26" fill="#86B0DD"></rect><text x="717.5" y="325" text-anchor="middle" font-size="12.5" font-weight="600" fill="#283747" dominant-baseline="middle"><tspan x="717.5" dy="0">calibration</tspan></text><rect x="755" y="312" width="75" height="26" fill="#3F77B8"></rect><text x="792.5" y="325" text-anchor="middle" font-size="12.5" font-weight="600" fill="#FFFFFF" dominant-baseline="middle"><tspan x="792.5" dy="0">test</tspan></text><rect x="80" y="312" width="750" height="26" rx="6" fill="none" stroke="#CBD5DB"></rect><line x1="580" y1="284" x2="580" y2="312" stroke="#8A97A0" stroke-width="1.6" marker-end="url(#arr)"></line><rect x="80" y="356" width="400" height="248" rx="14" ry="14" fill="#EEF2F4" stroke="#B8C4CC" stroke-width="1.1"></rect><text x="94" y="372" text-anchor="start" font-size="13" font-weight="700" fill="#5D6D7E" dominant-baseline="middle"><tspan x="94" dy="0">Asset model</tspan></text><line x1="280" y1="338" x2="280" y2="390" stroke="#8A97A0" stroke-width="1.6" marker-end="url(#arr)"></line><rect x="140" y="390" width="280" height="46" rx="9" ry="9" fill="#F4A582" filter="url(#sh)"></rect><text x="280" y="413" text-anchor="middle" font-size="14" font-weight="700" fill="#283747" dominant-baseline="middle"><tspan x="280" dy="-8.68">Class-weighted</tspan><tspan x="280" dy="17.36">gradient boosting</tspan></text><rect x="140" y="450" width="280" height="30" rx="9" ry="9" fill="#FCE3A0" filter="url(#sh)"></rect><text x="280" y="465" text-anchor="middle" font-size="13" font-weight="600" fill="#283747" dominant-baseline="middle"><tspan x="280" dy="0">300 iterations · rate 0.1</tspan></text><rect x="140" y="494" width="280" height="30" rx="9" ry="9" fill="#A6CEE3" filter="url(#sh)"></rect><text x="280" y="509" text-anchor="middle" font-size="13" font-weight="600" fill="#283747" dominant-baseline="middle"><tspan x="280" dy="0">Score per asset</tspan></text><line x1="280" y1="436" x2="280" y2="450" stroke="#8A97A0" stroke-width="1.6" marker-end="url(#arr)"></line><line x1="280" y1="480" x2="280" y2="494" stroke="#8A97A0" stroke-width="1.6" marker-end="url(#arr)"></line><rect x="140" y="542" width="280" height="50" rx="9" ry="9" fill="#FFFFFF" stroke="#B8C4CC" stroke-width="1.1" stroke-dasharray="5 3"></rect><text x="280" y="567" text-anchor="middle" font-size="12" font-weight="600" fill="#5D6D7E" dominant-baseline="middle"><tspan x="280" dy="-7.4399999999999995">alternative: GraphSAGE on the</tspan><tspan x="280" dy="14.879999999999999">k-NN graph (k = 6, edges ≤ 5 km)</tspan></text><rect x="500" y="356" width="330" height="248" rx="14" ry="14" fill="#EEF2F4" stroke="#B8C4CC" stroke-width="1.1"></rect><text x="514" y="372" text-anchor="start" font-size="13" font-weight="700" fill="#5D6D7E" dominant-baseline="middle"><tspan x="514" dy="0">Terrain hazard model</tspan></text><line x1="665" y1="338" x2="665" y2="386" stroke="#8A97A0" stroke-width="1.6" marker-end="url(#arr)"></line><rect x="515" y="386" width="300" height="32" rx="9" ry="9" fill="#A6CEE3" filter="url(#sh)"></rect><text x="665" y="402" text-anchor="middle" font-size="13" font-weight="600" fill="#283747" dominant-baseline="middle"><tspan x="665" dy="0">elev · slope · TWI · HAND · flow</tspan></text><rect x="515" y="432" width="300" height="50" rx="9" ry="9" fill="#F4A582" filter="url(#sh)"></rect><text x="665" y="457" text-anchor="middle" font-size="14" font-weight="700" fill="#283747" dominant-baseline="middle"><tspan x="665" dy="-8.68">Class-weighted</tspan><tspan x="665" dy="17.36">logistic regression</tspan></text><rect x="515" y="496" width="300" height="44" rx="9" ry="9" fill="#A6CEE3" filter="url(#sh)"></rect><text x="665" y="518" text-anchor="middle" font-size="13" font-weight="600" fill="#283747" dominant-baseline="middle"><tspan x="665" dy="-8.06">Evaluated at every</tspan><tspan x="665" dy="16.12">30 m cell</tspan></text><line x1="665" y1="418" x2="665" y2="432" stroke="#8A97A0" stroke-width="1.6" marker-end="url(#arr)"></line><line x1="665" y1="482" x2="665" y2="496" stroke="#8A97A0" stroke-width="1.6" marker-end="url(#arr)"></line><rect x="555" y="554" width="220" height="38" rx="9" ry="9" fill="#FFFFFF" stroke="#B8C4CC" stroke-width="1.1" stroke-dasharray="5 3"></rect><text x="665" y="573" text-anchor="middle" font-size="12" font-weight="600" fill="#5D6D7E" dominant-baseline="middle"><tspan x="665" dy="-7.4399999999999995">alternative: Kriged</tspan><tspan x="665" dy="14.879999999999999">graph scores</tspan></text><rect x="856" y="416" width="224" height="128" rx="9" ry="9" fill="#FFFFFF" stroke="#8A97A0" stroke-width="1.1" stroke-dasharray="5 3"></rect><text x="968" y="480" text-anchor="middle" font-size="13" font-weight="600" fill="#283747" dominant-baseline="middle"><tspan x="968" dy="-32.24">Validation</tspan><tspan x="968" dy="16.12">on test blocks against</tspan><tspan x="968" dy="16.12">observed Sentinel-1</tspan><tspan x="968" dy="16.12">floods: AUC, AP lift,</tspan><tspan x="968" dy="16.12">Brier score</tspan></text><path fill="none" stroke="#8A97A0" stroke-width="1.6" d="M 830 325 L 956 325 Q 968 325 968 337 L 968 416" marker-end="url(#arr)" stroke-dasharray="4 3"></path><path fill="none" stroke="#8A97A0" stroke-width="1.6" d="M 830 518 L 856 518" marker-end="url(#arr)" stroke-dasharray="4 3"></path><path fill="none" stroke="#8A97A0" stroke-width="1.6" d="M 420 509 L 483.0292160670819 573.8300508118557 Q 490 581 490 591 L 490 606 Q 490 616 500 616 L 958 616 Q 968 616 968 606 L 968 544" marker-end="url(#arr)" stroke-dasharray="4 3"></path><text x="30" y="662" text-anchor="middle" font-size="13.5" font-weight="700" fill="#5D6D7E" dominant-baseline="middle" transform="rotate(-90 30 662)"><tspan x="30" dy="0">Calibrate</tspan></text><line x1="280" y1="604" x2="280" y2="638" stroke="#8A97A0" stroke-width="1.6" marker-end="url(#arr)"></line><line x1="665" y1="604" x2="665" y2="638" stroke="#8A97A0" stroke-width="1.6" marker-end="url(#arr)"></line><rect x="90" y="638" width="380" height="46" rx="9" ry="9" fill="#86B0DD" filter="url(#sh)"></rect><text x="280" y="661" text-anchor="middle" font-size="13.5" font-weight="700" fill="#283747" dominant-baseline="middle"><tspan x="280" dy="-8.37">Isotonic calibration on</tspan><tspan x="280" dy="16.74">calibration blocks → probability</tspan></text><rect x="515" y="638" width="300" height="46" rx="9" ry="9" fill="#A6CEE3" filter="url(#sh)"></rect><text x="665" y="661" text-anchor="middle" font-size="14" font-weight="700" fill="#283747" dominant-baseline="middle"><tspan x="665" dy="0">Hazard surface H</tspan></text><text x="30" y="748" text-anchor="middle" font-size="13.5" font-weight="700" fill="#5D6D7E" dominant-baseline="middle" transform="rotate(-90 30 748)"><tspan x="30" dy="0">Risk</tspan></text><rect x="80" y="720" width="371" height="56" rx="9" ry="9" fill="#D3E4F5" filter="url(#sh)"></rect><text x="265.5" y="748" text-anchor="middle" font-size="13.5" font-weight="700" fill="#283747" dominant-baseline="middle"><tspan x="265.5" dy="-8.37">Exposure E</tspan><tspan x="265.5" dy="16.74">mapped assets | people</tspan></text><rect x="475" y="720" width="380" height="56" rx="9" ry="9" fill="#E89B6C" filter="url(#sh)"></rect><text x="665" y="748" text-anchor="middle" font-size="14" font-weight="700" fill="#3B2415" dominant-baseline="middle"><tspan x="665" dy="-8.68">Composite risk ∛(H · E · V)</tspan><tspan x="665" dy="17.36">two readings · quintile classes</tspan></text><rect x="879" y="720" width="201" height="56" rx="9" ry="9" fill="#86B0DD" filter="url(#sh)"></rect><text x="979.5" y="748" text-anchor="middle" font-size="13.5" font-weight="700" fill="#283747" dominant-baseline="middle"><tspan x="979.5" dy="-8.37">Vulnerability V</tspan><tspan x="979.5" dy="16.74">population · access</tspan></text><line x1="665" y1="684" x2="665" y2="720" stroke="#8A97A0" stroke-width="1.6" marker-end="url(#arr)"></line><line x1="451" y1="748" x2="451" y2="748" stroke="#8A97A0" stroke-width="1.6" marker-end="url(#arr)"></line><line x1="451" y1="748" x2="475" y2="748" stroke="#8A97A0" stroke-width="1.6" marker-end="url(#arr)"></line><line x1="879" y1="748" x2="855" y2="748" stroke="#8A97A0" stroke-width="1.6" marker-end="url(#arr)"></line><text x="30" y="850" text-anchor="middle" font-size="13.5" font-weight="700" fill="#5D6D7E" dominant-baseline="middle" transform="rotate(-90 30 850)"><tspan x="30" dy="0">Outputs</tspan></text><rect x="80" y="818" width="317.3333333333333" height="64" rx="9" ry="9" fill="#3F77B8" filter="url(#sh)"></rect><text x="238.66666666666666" y="850" text-anchor="middle" font-size="13.5" font-weight="700" fill="#FFFFFF" dominant-baseline="middle"><tspan x="238.66666666666666" dy="-8.37">Public dashboard</tspan><tspan x="238.66666666666666" dy="16.74">scores, probabilities, maps</tspan></text><rect x="421.3333333333333" y="818" width="317.3333333333333" height="64" rx="9" ry="9" fill="#3F77B8" filter="url(#sh)"></rect><text x="580" y="850" text-anchor="middle" font-size="13.5" font-weight="700" fill="#FFFFFF" dominant-baseline="middle"><tspan x="580" dy="-8.37">Union, upazila, district</tspan><tspan x="580" dy="16.74">summaries · Gᵢ* hotspots</tspan></text><rect x="762.6666666666666" y="818" width="317.3333333333333" height="64" rx="9" ry="9" fill="#3F77B8" filter="url(#sh)"></rect><text x="921.3333333333333" y="850" text-anchor="middle" font-size="13.5" font-weight="700" fill="#FFFFFF" dominant-baseline="middle"><tspan x="921.3333333333333" dy="-8.37">Data archive</tspan><tspan x="921.3333333333333" dy="16.74">inputs, outputs, checksums</tspan></text><path fill="none" stroke="#8A97A0" stroke-width="1.6" d="M 665 776 L 665 790 Q 665 800 655 800 L 247.66666666666666 800 Q 238.66666666666666 800 238.66666666666666 809 L 238.66666666666666 818" marker-end="url(#arr)"></path><path fill="none" stroke="#8A97A0" stroke-width="1.6" d="M 665 776 L 665 790 Q 665 800 655 800 L 589 800 Q 580 800 580 809 L 580 818" marker-end="url(#arr)"></path><path fill="none" stroke="#8A97A0" stroke-width="1.6" d="M 665 776 L 665 790 Q 665 800 675 800 L 912.3333333333333 800 Q 921.3333333333333 800 921.3333333333333 809 L 921.3333333333333 818" marker-end="url(#arr)"></path><path fill="none" stroke="#8A97A0" stroke-width="1.6" d="M 90 661 L 74 661 Q 64 661 64 671 L 64 842 Q 64 850 72 850 L 80 850" marker-end="url(#arr)"></path></svg>